<?xml version="1.0" encoding="utf-8"?>
<!-- Generator: Adobe Illustrator 22.1.0, SVG Export Plug-In . SVG Version: 6.00 Build 0)  -->
<svg version="1.1" id="Layer_1_1_" xmlns="http://www.w3.org/2000/svg" xmlns:xlink="http://www.w3.org/1999/xlink" x="0px" y="0px"
	 viewBox="0 0 380 100" style="enable-background:new 0 0 380 100;" xml:space="preserve">
<style type="text/css">
	.st0{fill:#939598;}
	.st1{fill:#231F20;}
	.st2{fill:#969898;}
	.st3{fill:#EC008C;}
	.st4{fill:#00AEEF;}
</style>
<g>
	<path class="st0" d="M263.5,31.3c1.2,0,1.7,0.4,1.5,1.5l-0.6,4.3c-0.1,1.2-0.7,1.6-1.8,1.6h-7.1L252,67.3c-0.2,1.2-0.6,1.7-1.7,1.7
		h-6c-1.2,0-1.6-0.5-1.4-1.7l3.5-28.5h-7.1c-1.2,0-1.7-0.4-1.5-1.6l0.6-4.3c0.1-1.2,0.7-1.5,1.8-1.5h23.3V31.3z"/>
	<path class="st0" d="M259.8,49.5c0.7-5.3,4.9-8.6,13.5-8.6c7.5,0,11.9,2.9,11.9,7.6c0,0.3,0,0.5-0.1,1.1l-1.4,11.3
		c-0.7,5.3-4.7,8.6-13.4,8.6c-7.6,0-12-3-12-7.7c0-0.2,0-0.4,0.1-0.9L259.8,49.5z M276.2,50.2v-0.3c0-1.7-1.7-2.1-3.5-2.1
		c-2.3,0-3.9,0.6-4.1,2.4l-1.2,9.8v0.4c0,1.7,1.4,2,3.5,2c2.3,0,3.9-0.6,4.1-2.5L276.2,50.2z"/>
	<path class="st0" d="M302.2,66.5c-1.6,1.2-4.1,2.9-8.4,2.9c-4.5,0-7.5-2.8-7.5-6.7c0-0.2,0-0.5,0.1-1l2.3-18.8
		c0.2-1.2,0.7-1.7,1.8-1.7h5.6c0.9,0,1.6,0.3,1.4,1.7l-2,16.5c-0.1,0.5-0.1,0.8-0.1,0.9c0,1.1,0.4,1.4,1.8,1.4
		c2.1,0,4.3-1.3,5.5-2.2l2-16.7c0.2-1.2,0.6-1.7,1.8-1.7h5.7c1.3,0,1.5,0.6,1.4,1.7l-3,24.4c-0.2,1.2-0.7,1.6-1.8,1.6h-5.3
		c-1.1,0-1.4-0.4-1.4-1.6v-0.7H302.2z"/>
	<path class="st0" d="M339.9,48.4c0,0.3,0,0.4-0.1,1.2l-0.1,0.7c-0.1,1.2-0.7,1.6-1.8,1.6h-5.2c-1.1,0-1.4-0.5-1.4-1.5v-0.8
		c0-1.4-0.9-1.9-3-1.9c-2.3,0-3.4,0.6-3.6,2.4l-1.1,9c-0.1,0.8-0.2,1.2-0.2,1.4c0,1.4,1,1.9,3.1,1.9c2.3,0,3.4-0.6,3.6-2.4l0.1-0.7
		c0.1-1.2,0.6-1.6,1.8-1.6h5.3c1.3,0,1.4,0.7,1.4,1.6l-0.1,1.4c-0.4,5.3-4,8.6-12.8,8.6c-7.5,0-11.2-2.9-11.2-7.5
		c0-0.2,0-0.4,0.1-1.1l1.4-11.3c0.7-5.3,4.2-8.6,12.8-8.6C336.5,40.8,339.9,44,339.9,48.4z"/>
	<path class="st0" d="M351.7,43.6c1.7-1.2,4.4-2.8,8.4-2.8c4.4,0,7.5,2.8,7.5,6.8c0,0.2,0,0.4-0.1,0.9l-2.3,18.8
		c-0.2,1.2-0.7,1.7-1.8,1.7h-5.6c-0.9,0-1.5-0.6-1.4-1.7l2-16.5c0.1-0.6,0.1-0.7,0.1-0.8c0-1.1-0.4-1.5-1.9-1.5
		c-2.2,0-4.5,1.4-5.8,2.2l-2,16.7c-0.2,1.2-0.6,1.7-1.8,1.7h-5.7c-1,0-1.5-0.6-1.4-1.7l4.3-35.4c0.2-1.2,0.7-1.7,1.8-1.7h5.7
		c1.2,0,1.4,0.6,1.3,1.7L351.7,43.6z"/>
</g>
<path class="st1" d="M212.6,43.1c0.1-0.6,0-1-0.2-1.3s-0.6-0.4-1.2-0.4h-5.7c-0.6,0-1,0.1-1.3,0.4c-0.3,0.3-0.4,0.7-0.5,1.3l-3,24.3
	c-0.1,0.6,0,1,0.2,1.3s0.6,0.4,1.2,0.4h5.7c0.6,0,1-0.1,1.3-0.4s0.4-0.7,0.5-1.3L212.6,43.1L212.6,43.1z"/>
<path class="st2" d="M369,36.5c0-0.1,0-0.3,0-0.4c0-0.1-0.1-0.3-0.2-0.4c-0.1-0.1-0.2-0.3-0.4-0.4c-0.2-0.1-0.4-0.2-0.7-0.3
	c-0.3-0.1-0.7-0.1-1.1-0.1c-0.4,0-0.8,0-1.1,0.1c-0.3,0.1-0.5,0.2-0.7,0.3c-0.2,0.1-0.3,0.2-0.4,0.4c-0.1,0.1-0.2,0.3-0.2,0.4
	c0,0.1,0,0.3,0,0.4v1.9c0,0.1,0,0.3,0,0.4c0,0.1,0.1,0.3,0.2,0.4c0.1,0.1,0.2,0.3,0.4,0.4c0.2,0.1,0.4,0.2,0.7,0.3
	c0.3,0.1,0.7,0.1,1.1,0.1c0.4,0,0.8,0,1.1-0.1c0.3-0.1,0.5-0.2,0.7-0.3c0.2-0.1,0.3-0.2,0.4-0.4c0.1-0.1,0.2-0.3,0.2-0.4
	c0-0.1,0-0.3,0-0.4V36.5L369,36.5z M368.3,38.5c0,0.1,0,0.2-0.1,0.3c-0.1,0.1-0.1,0.2-0.3,0.3c-0.1,0.1-0.3,0.2-0.6,0.2
	c-0.2,0-0.5,0.1-0.9,0.1c-0.4,0-0.7,0-0.9-0.1c-0.2-0.1-0.4-0.1-0.6-0.2c-0.1-0.1-0.2-0.2-0.3-0.3c-0.1-0.1-0.1-0.2-0.1-0.3v-2.1
	c0-0.1,0-0.2,0.1-0.3c0.1-0.1,0.1-0.2,0.3-0.3c0.1-0.1,0.3-0.2,0.6-0.2c0.2,0,0.5-0.1,0.9-0.1c0.4,0,0.7,0,0.9,0.1
	c0.2,0.1,0.4,0.1,0.6,0.2s0.2,0.2,0.3,0.3c0.1,0.1,0.1,0.2,0.1,0.3V38.5L368.3,38.5z M367.7,37.1v-0.2c0-0.1,0-0.2,0-0.3
	c0-0.1-0.1-0.2-0.2-0.3c-0.1-0.1-0.2-0.1-0.3-0.2c-0.1,0-0.3-0.1-0.6-0.1h-1.1c0,0-0.1,0-0.1,0c0,0,0,0.1,0,0.1v2.6c0,0,0,0.1,0,0.1
	c0,0,0.1,0,0.1,0h0.4c0.1,0,0.1,0,0.1,0c0,0,0-0.1,0-0.1V38h0.5l0.4,0.8c0,0,0,0.1,0.1,0.1c0,0,0,0,0.1,0h0.4c0.1,0,0.1,0,0.1,0
	c0,0,0-0.1,0-0.1l-0.4-0.9c0.1-0.1,0.2-0.1,0.3-0.2c0.1-0.1,0.1-0.2,0.1-0.3C367.7,37.3,367.7,37.2,367.7,37.1L367.7,37.1z
	 M366.6,36.6c0.1,0,0.3,0,0.3,0.1c0.1,0.1,0.1,0.1,0.1,0.3v0.2c0,0.1,0,0.2-0.1,0.2c-0.1,0.1-0.2,0.1-0.3,0.1h-0.5v-0.8H366.6
	L366.6,36.6z"/>
<path class="st1" d="M122.7,43c0-0.1,0-0.2,0-0.3s-0.1-0.2-0.1-0.3c-0.1-0.1-0.2-0.2-0.3-0.2c-0.1-0.1-0.3-0.1-0.5-0.2
	c-0.2,0-0.4-0.1-0.7-0.1c-0.3,0-0.5,0-0.7,0.1c-0.2,0-0.4,0.1-0.5,0.2c-0.1,0.1-0.2,0.2-0.3,0.2c-0.1,0.1-0.1,0.2-0.1,0.3
	s0,0.2,0,0.3v1.3c0,0.1,0,0.2,0,0.3s0.1,0.2,0.1,0.3c0.1,0.1,0.2,0.2,0.3,0.2c0.1,0.1,0.3,0.1,0.5,0.2c0.2,0,0.4,0.1,0.7,0.1
	c0.3,0,0.5,0,0.7-0.1c0.2,0,0.4-0.1,0.5-0.2c0.1-0.1,0.2-0.2,0.3-0.2c0.1-0.1,0.1-0.2,0.1-0.3s0-0.2,0-0.3V43L122.7,43z M122.3,44.3
	c0,0.1,0,0.2,0,0.2c0,0.1-0.1,0.1-0.2,0.2c-0.1,0.1-0.2,0.1-0.4,0.1c-0.2,0-0.4,0-0.6,0.1c-0.2,0-0.4,0-0.6-0.1
	c-0.2,0-0.3-0.1-0.4-0.1c-0.1-0.1-0.1-0.1-0.2-0.2c0-0.1-0.1-0.1-0.1-0.2v-1.4c0-0.1,0-0.2,0.1-0.2c0-0.1,0.1-0.1,0.2-0.2
	c0.1-0.1,0.2-0.1,0.4-0.1c0.2,0,0.4-0.1,0.6-0.1s0.4,0,0.6,0.1c0.2,0,0.3,0.1,0.4,0.1c0.1,0.1,0.1,0.1,0.2,0.2c0,0.1,0.1,0.1,0,0.2
	V44.3L122.3,44.3z M121.9,43.4L121.9,43.4c0-0.2,0-0.2,0-0.3c0-0.1-0.1-0.1-0.1-0.2c-0.1-0.1-0.1-0.1-0.2-0.1s-0.2,0-0.4,0h-0.7
	h-0.1c0,0,0,0,0,0.1v1.7v0.1c0,0,0,0,0.1,0h0.3h0.1c0,0,0,0,0-0.1V44h0.4l0.2,0.6v0.1c0,0,0,0,0.1,0h0.3h0.1c0,0,0,0,0-0.1l-0.3-0.6
	c0.1,0,0.1-0.1,0.2-0.1c0-0.1,0.1-0.1,0.1-0.2C121.9,43.5,121.9,43.4,121.9,43.4L121.9,43.4z M121.1,43c0.1,0,0.2,0,0.2,0.1
	c0.1,0,0.1,0.1,0.1,0.2v0.1c0,0.1,0,0.1-0.1,0.2c-0.1,0-0.1,0.1-0.2,0.1h-0.3V43H121.1L121.1,43z"/>
<g>
	<path class="st1" d="M24.1,50.6c0.1,0.9,0.1,2.8,0.1,2.8c0-0.2,0.4-1.6,0.8-2.8l2.7-7.2c0.2-0.5,0.5-0.8,1-0.8h2.5
		c0.5,0,0.6,0.3,0.5,0.8l-6,16.1c-0.2,0.5-0.5,0.8-1,0.8H22c-0.5,0-0.7-0.3-0.8-0.8l-1-7.5c-0.1-0.7-0.1-2.6-0.1-2.6
		c-0.1,0.2-0.4,1.8-0.7,2.7l-2.8,7.4c-0.2,0.5-0.5,0.8-1,0.8h-2.7c-0.5,0-0.7-0.3-0.8-0.8L10,43.4c-0.1-0.5,0.1-0.8,0.7-0.8h2.8
		c0.5,0,0.8,0.3,0.8,0.8l0.9,7.2c0.1,0.8,0.1,2.2,0.1,2.3c0-0.1,0.4-1.3,0.8-2.3l2.7-7.2c0.2-0.5,0.5-0.8,1-0.8h2.6
		c0.5,0,0.8,0.3,0.8,0.8L24.1,50.6z"/>
	<path class="st1" d="M37.9,59c-0.8,0.6-1.9,1.4-4,1.4c-2.3,0-3.5-1.2-3.5-3.3c0-0.2,0-0.4,0.1-0.7l0.7-5.4c0.3-2.5,1.4-4,4.2-4
		c1.9,0,3.2,0.8,3.8,1.3l0.1-0.4c0.2-0.5,0.3-0.8,0.8-0.8h2.6c0.4,0,0.7,0.2,0.6,0.8l-1.4,11.4c-0.1,0.5-0.3,0.8-0.9,0.8h-2.5
		c-0.4,0-0.6-0.2-0.6-0.8C37.9,59.3,37.9,59,37.9,59z M34.6,55.8c0,0.2,0,0.3,0,0.4c0,0.4,0.1,0.7,0.9,0.7c1,0,2.1-0.7,2.7-1.1
		l0.5-4.1c-0.5-0.4-1.5-1.1-2.4-1.1s-1.1,0.6-1.1,1.1L34.6,55.8z"/>
	<path class="st1" d="M49.5,55.5c0,0.2,0,0.3,0,0.4c0,0.6,0.4,0.9,1.5,0.9h0.6c0.6,0,0.8,0.3,0.7,0.8L52,59.5
		c-0.1,0.5-0.3,0.8-0.9,0.8h-1.3c-3.4,0-4.7-1.1-4.7-3.2c0-0.3,0-0.5,0.1-0.8l0.7-5.6h-1.1c-0.6,0-0.7-0.3-0.6-0.8l0.2-1.6
		c0.1-0.5,0.3-0.7,0.9-0.8l1.1-0.2l0,0l0.3-2.4c0.1-0.5,0.3-0.8,0.9-0.8h2.7c0.5,0,0.7,0.3,0.6,0.8l-0.3,2.4h2.1
		c0.6,0,0.7,0.3,0.7,0.7l-0.2,1.8c-0.1,0.5-0.3,0.8-0.9,0.8h-2.1L49.5,55.5z"/>
	<path class="st1" d="M64.7,54c-0.1,0.5-0.3,0.7-0.8,0.7h-6.3l-0.1,1.1c-0.1,0.4-0.1,0.6-0.1,0.6c0,0.6,0.4,0.9,1.4,0.9
		c1.1,0,1.6-0.4,1.7-1v-0.2c0.1-0.5,0.3-0.8,0.9-0.8h2.2c0.5,0,0.7,0.3,0.6,0.8v0.2c-0.4,2.5-1.6,4-5.7,4c-3.5,0-5.3-1.4-5.3-3.5
		c0-0.2,0-0.2,0-0.5l0.6-5.3c0.3-2.5,2-4,6-4c3.4,0,5.1,1.3,5.1,3.5c0,0.2,0,0.4,0,0.5L64.7,54z M57.9,52.1H61l0.1-0.5
		c0-0.1,0-0.4,0-0.4c0-0.6-0.5-1-1.5-1c-1.1,0-1.6,0.4-1.7,1.2L57.9,52.1z"/>
	<path class="st1" d="M75.7,47.8l-0.3,2c-0.1,0.5-0.3,0.7-0.9,0.8c-1.8,0.2-3.1,0.9-3.7,1.4L70,59.5c-0.1,0.5-0.3,0.8-0.8,0.8h-2.7
		c-0.5,0-0.7-0.2-0.6-0.8l1.4-11.4c0.1-0.5,0.3-0.8,0.8-0.8h2.5c0.5,0,0.7,0.2,0.7,0.8v0.7c0.7-0.7,1.8-1.7,3.8-1.7
		C75.5,47.1,75.8,47.3,75.7,47.8z"/>
	<path class="st1" d="M80.2,56.8h5.1c0.5,0,0.8,0.2,0.7,0.7l-0.3,2c-0.1,0.5-0.3,0.8-0.9,0.8h-8.7c-0.5,0-0.6-0.3-0.6-0.8l2-16.1
		c0.1-0.5,0.3-0.8,0.9-0.8h2.8c0.5,0,0.7,0.2,0.6,0.8L80.2,56.8z"/>
	<path class="st1" d="M91.2,59.5c-0.1,0.5-0.3,0.8-0.8,0.8h-2.7c-0.5,0-0.7-0.2-0.6-0.8l1.4-11.4c0.1-0.5,0.3-0.8,0.8-0.8H92
		c0.5,0,0.7,0.2,0.6,0.8L91.2,59.5z M93,45.1c-0.1,0.5-0.3,0.8-0.8,0.8h-2.7c-0.5,0-0.7-0.2-0.6-0.8l0.3-2.1
		c0.1-0.5,0.3-0.8,0.9-0.8h2.7c0.5,0,0.7,0.2,0.6,0.8L93,45.1z"/>
	<path class="st1" d="M98.1,47.3c0.5,0,0.7,0.2,0.7,0.8v0.4c0.8-0.6,2.1-1.4,4-1.4c2,0,3.5,1.3,3.5,3.2c0,0.1,0,0.2-0.1,0.7l-1,8.5
		c-0.1,0.5-0.3,0.8-0.9,0.8h-2.6c-0.4,0-0.8-0.2-0.7-0.8l1-7.5c0.1-0.5,0.1-0.5,0.1-0.6c0-0.5-0.2-0.7-0.9-0.7c-1,0-2.1,0.6-2.7,1
		l-1,7.8c-0.1,0.5-0.3,0.8-0.8,0.8H94c-0.5,0-0.7-0.2-0.6-0.8l1.4-11.4c0.1-0.5,0.3-0.8,0.8-0.8H98.1z"/>
	<path class="st1" d="M115.8,60.2c-0.5,0-0.8-0.4-1-0.8l-2.4-4.9H112l-0.6,4.9c-0.1,0.5-0.3,0.8-0.8,0.8h-2.7
		c-0.5,0-0.7-0.2-0.6-0.8l2-16.5c0.1-0.5,0.3-0.8,0.9-0.8h2.7c0.5,0,0.7,0.2,0.6,0.8l-1,8.5h0.3l3.1-3.4c0.4-0.4,0.8-0.8,1.3-0.8h3
		c0.5,0,0.6,0.4,0.3,0.8l-4.4,4.8l3.3,6.6c0.2,0.4,0.1,0.8-0.5,0.8C118.9,60.2,115.8,60.2,115.8,60.2z"/>
</g>
<g>
	<path class="st1" d="M223.1,41.1c1.2,0,1.4,0.4,1.4,1.6v0.9c1.7-1.3,4.4-3,8.6-3c4.4,0,7.5,2.8,7.5,6.8c0,0.2,0,0.4-0.1,1.4
		l-2.2,18.3c-0.2,1.2-0.7,1.7-1.8,1.7H231c-0.9,0-1.6-0.3-1.4-1.7l1.9-16c0.1-1,0.1-1.2,0.1-1.3c0-1.1-0.4-1.5-1.9-1.5
		c-2.2,0-4.6,1.4-5.8,2.2l-2,16.7c-0.2,1.2-0.6,1.7-1.8,1.7h-5.7c-1,0-1.5-0.4-1.4-1.7l3-24.4c0.1-1.2,0.6-1.6,1.8-1.6L223.1,41.1
		L223.1,41.1z"/>
</g>
<g>
	<path class="st1" d="M162.8,41.4v-0.3c0-2.3-1.5-3.2-4-3.2s-4.4,0.9-4.7,3.5L154,42v0.3c0,1.4,0.9,1.8,1.5,2l8.9,3.2
		c3.6,1.3,5.9,4,5.9,7.5c0,0.4-0.1,0.8-0.1,1.4l-0.4,3.4c-0.6,4.8-4.1,9.5-14.6,9.5c-9.5,0-13.1-4.1-13.1-8.5c0-0.3,0-0.6,0.1-1.4
		l0.4-3.3c0.1-1.2,0.7-1.7,1.8-1.7h5.8c1.2,0,1.5,0.6,1.3,1.7l-0.3,2c-0.1,0.4-0.1,0.7-0.1,1c0,2.2,1.9,2.9,4.6,2.9
		c2.7,0,4.8-0.9,5.2-3.5l0.1-0.7c0.1-0.4,0.1-0.6,0.1-0.7c0-1.8-2.6-2.8-4.3-3.4l-7.6-3c-2.2-0.8-4.3-3.3-4.3-6.4
		c0-0.3,0.1-0.8,0.1-1.4l0.3-2.8c0.6-4.8,3.6-9.5,13.9-9.5c9.3,0,12.6,4.1,12.6,8.4c0,0.2,0,0.4-0.1,1.1l-0.2,2
		c-0.1,1.2-0.7,1.7-1.8,1.7H164c-1.1,0-1.4-0.4-1.3-1.7L162.8,41.4z"/>
	<path class="st1" d="M184.3,42.8v0.9c1.7-1.2,4.3-3,8.6-3c4.8,0,7.6,2.7,7.6,7.1c0,0.3,0,0.6-0.1,1.4L199,60.7
		c-0.7,5.3-3.1,8.5-9,8.5c-3.9,0-6.8-1.7-8.2-2.8l-1.4,11.7c-0.2,1.2-0.6,1.7-1.7,1.7H173c-0.9,0-1.6-0.3-1.4-1.7l4.4-35.4
		c0.2-1.2,0.6-1.7,1.8-1.7h5.3C184,41.1,184.3,41.6,184.3,42.8z M191.2,51c0.1-0.9,0.1-1.1,0.1-1.2c0-0.8-0.3-1.5-1.9-1.5
		c-2.2,0-4.6,1.4-5.8,2.3l-1.1,8.9c1,0.8,3,2.3,5.2,2.3c2.1,0,2.3-1.2,2.4-2.3L191.2,51z"/>
</g>
<g id="Layer_2_1_">
	<g>
		<path class="st3" d="M210.9,25.4c-2.9-1.4-6.6-0.1-8,2.9s-0.1,6.6,2.8,8c3,1.4,6.6,0.1,8-2.9C215.2,30.4,213.9,26.8,210.9,25.4z"
			/>
		<path class="st4" d="M157.5,8.4c-2.9-1.4-6.5-0.1-8,2.8c-1.4,3-0.1,6.6,2.9,8c3,1.4,6.6,0.1,8-2.9C161.8,13.3,160.5,9.7,157.5,8.4
			z"/>
		<path class="st4" d="M197.3,11.3c-3-1.5-6.6-0.1-8,2.9c-1.5,2.9-0.1,6.6,2.9,8c2.9,1.4,6.6,0.1,8-2.9
			C201.5,16.3,200.3,12.7,197.3,11.3z"/>
		<path class="st4" d="M141.2,21.9c-3-1.5-6.6-0.1-8,2.9c-1.5,2.9-0.1,6.6,2.9,8c2.9,1.4,6.6,0.1,8-2.9
			C145.5,26.9,144.3,23.3,141.2,21.9z"/>
		<path class="st4" d="M134.4,42.2c-3-1.5-6.6-0.1-8,2.9c-1.5,2.9-0.1,6.6,2.9,8c2.9,1.4,6.6,0.1,8-2.9
			C138.6,47.2,137.4,43.6,134.4,42.2z"/>
		<path class="st4" d="M136.8,61c-3-1.5-6.6-0.1-8,2.9c-1.5,2.9-0.1,6.6,2.9,8c2.9,1.4,6.6,0.1,8-2.9
			C141.1,65.9,139.8,62.4,136.8,61z"/>
		<path class="st4" d="M167.8,84.4c-3-1.5-6.6-0.1-8,2.9c-1.5,2.9-0.1,6.6,2.9,8c2.9,1.4,6.6,0.1,8-2.9
			C172,89.4,170.8,85.8,167.8,84.4z"/>
		<path class="st4" d="M148.8,76.2c-3-1.5-6.6-0.1-8,2.9c-1.5,2.9-0.1,6.6,2.9,8c2.9,1.4,6.6,0.1,8-2.9
			C153.1,81.2,151.8,77.6,148.8,76.2z"/>
		<path class="st4" d="M177.4,4.7c-3-1.5-6.6-0.1-8,2.9c-1.5,2.9-0.1,6.6,2.9,8c2.9,1.4,6.6,0.1,8-2.9
			C181.7,9.7,180.5,6.1,177.4,4.7z"/>
		<path class="st4" d="M206.3,73.5c-3-1.5-6.6-0.1-8,2.9c-1.5,2.9-0.1,6.6,2.9,8c2.9,1.4,6.6,0.1,8-2.9
			C210.5,78.5,209.3,74.9,206.3,73.5z"/>
		<path class="st4" d="M188.8,83.5c-3-1.5-6.6-0.1-8,2.9c-1.5,2.9-0.1,6.6,2.9,8c2.9,1.4,6.6,0.1,8-2.9
			C193,88.5,191.8,84.9,188.8,83.5z"/>
	</g>
</g>
</svg>
